<?xml version="1.0" standalone="no"?><!DOCTYPE svg PUBLIC "-//W3C//DTD SVG 1.1//EN" "http://www.w3.org/Graphics/SVG/1.1/DTD/svg11.dtd"><svg class="icon" width="200px" height="200.00px" viewBox="0 0 1024 1024" version="1.1" xmlns="http://www.w3.org/2000/svg"><path d="M581.056 288.32H232.96l108.352-102.208c15.552-15.744 19.456-31.104 4.16-46.208-16.064-15.872-32.576-15.808-48.64 0l-145.92 144.768c-8.768 8.832-23.488 20.608-22.08 32.448l0.64 4.8-0.64 4.864c-1.344 11.776 6.4 18.24 14.848 26.816l147.648 145.216c16.064 15.808 38.08 20.992 54.144 5.12 15.296-15.104 3.84-38.208-11.328-53.504L233.152 353.6 581.056 352c126.464 0 250.944 111.488 250.944 236.16C832 712.832 707.52 832 581.056 832H246.4c-22.592 0-29.696 9.6-29.696 32.256s7.04 31.744 29.696 31.744H581.12C755.136 896 896 757.696 896 588.16c0-169.408-140.8-299.84-314.944-299.84z" fill="#888888" /><path d="M323.392 192a32 32 0 1 1 0-64 32 32 0 0 1 0 64zM320.192 514.048a32 32 0 1 1 0-64 32 32 0 0 1 0 64zM237.824 896a32 32 0 1 1 0-64 32 32 0 0 1 0 64z" fill="#888888" /></svg>