<?xml version="1.0" encoding="UTF-8"?>
<svg width="970px" height="88px" viewBox="0 0 970 88" version="1.1" xmlns="http://www.w3.org/2000/svg" xmlns:xlink="http://www.w3.org/1999/xlink">
    <title>椭圆形</title>
    <g id="页面-1" stroke="none" stroke-width="1" fill="none" fill-rule="evenodd">
        <g id="HOME2.0-Cookies" transform="translate(-463, -290)" fill="#4A4AF4" fill-rule="nonzero">
            <g id="编组-6" transform="translate(360, 290)">
                <g id="编组-5" transform="translate(103, 0)">
                    <path id="椭圆形" d="M3.63654122,81.8302717 L5.05684025,85.5696234 C4.15484087,85.9122252 3.258099,86.2555811 2.3666427,86.599686 L0.92621661,82.8680412 C1.82439471,82.5213417 2.72784544,82.175417 3.63654122,81.8302717 Z M11.1666948,79.0315208 L12.5341472,82.7905198 C11.2775594,83.2476426 10.0303816,83.706182 8.79268606,84.1661247 L7.39933511,80.4166483 C8.64568582,79.9534892 9.90149604,79.4917761 11.1666948,79.0315208 Z M954.427352,61.409349 L969.176722,83.8248814 L942.394674,82.1750578 L947.365322,73.5987647 C946.810251,73.3104307 946.252651,73.0229274 945.692532,72.7362545 L947.514939,69.1755197 C948.137212,69.494003 948.756455,69.8135201 949.372659,70.1340717 L954.427352,61.409349 Z M18.7234227,76.3387292 L20.0418905,80.1151882 C18.7796682,80.5558654 17.5262319,80.9979321 16.2816517,81.4413756 L14.9391242,77.6734027 C16.1917446,77.2270945 17.4532005,76.7821994 18.7234227,76.3387292 Z M26.3153016,73.7400948 L27.588101,77.5321895 C26.3206127,77.9576162 25.0613472,78.3844093 23.810373,78.8125567 L22.5151281,75.0280699 C23.7736024,74.5973556 25.0403495,74.1680267 26.3153016,73.7400948 Z M33.9540827,71.2245251 L35.1840626,75.0307239 C33.9119777,75.4418004 32.6475988,75.854223 31.3909929,76.2679799 L30.1400002,72.4686355 C31.403627,72.052567 32.67501,71.6378597 33.9540827,71.2245251 Z M41.599044,68.7988381 L42.7889314,72.6177605 C41.51335,73.015202 40.2449945,73.4139708 38.9839307,73.8140555 L37.7743091,70.0013379 C39.0419661,69.5991615 40.3168995,69.1983245 41.599044,68.7988381 Z M49.2644818,66.4523261 L50.4166182,70.2828067 C49.1365195,70.6678363 47.8632194,71.05418 46.596783,71.4418265 L45.4260311,67.6169944 C46.6986864,67.2274444 47.9781915,66.839218 49.2644818,66.4523261 Z M940.297304,65.5929202 C941.511866,66.1777516 942.715861,66.7662577 943.909223,67.3584441 L942.131173,70.9415346 C940.952055,70.3564168 939.762289,69.7748655 938.56194,69.1968781 L940.297304,65.5929202 Z M56.9386828,64.1832404 L58.0552039,68.0242533 C56.7724867,68.3971187 55.4961569,68.7712841 54.2262789,69.1467385 L53.0921633,65.3108838 C54.3679186,64.9336917 55.6501131,64.557807 56.9386828,64.1832404 Z M933.008954,62.1848782 C934.235481,62.7419428 935.452095,63.3025235 936.658733,63.8666256 L934.964715,67.4902016 C933.771398,66.9323269 932.568086,66.3778754 931.354844,65.8268446 L933.008954,62.1848782 Z M64.668409,61.9735793 L65.75102,65.8242874 C64.4650507,66.1858325 63.1850932,66.5486674 61.9112114,66.9127814 L60.8119145,63.0668034 C62.0913697,62.7010964 63.3768891,62.3366848 64.668409,61.9735793 Z M72.3867798,59.8385254 L73.4372875,63.6981152 C72.1481198,64.0490024 70.8646156,64.4011718 69.5868386,64.7546127 L68.5204571,60.8993786 C69.8035359,60.5444711 71.0923312,60.1908499 72.3867798,59.8385254 Z M925.658025,58.9390148 C926.893573,59.4695039 928.119832,60.0033572 929.336742,60.5405795 L927.721299,64.1998614 C926.516853,63.6681413 925.303037,63.1397053 924.079914,62.6145512 L925.658025,58.9390148 Z M80.1133575,57.7685487 L81.1333051,61.6363268 C79.841405,61.9770057 78.5548395,62.3189605 77.2736721,62.6621808 L76.2385859,58.7984266 C77.5248091,58.4538519 78.8164207,58.1105558 80.1133575,57.7685487 Z M918.217588,55.830495 C919.466637,56.3383351 920.706893,56.8494307 921.938296,57.3637858 L920.396591,61.0547403 C919.176922,60.5452864 917.948379,60.0390181 916.711025,59.5359329 L918.217588,55.830495 Z M87.8995704,55.7470846 L88.8901579,59.622486 C87.5964627,59.9531661 86.3077841,60.2851161 85.0241855,60.6183256 L84.0191366,56.7466494 C85.3075646,56.4121862 86.6010636,56.0789946 87.8995704,55.7470846 Z M95.6481874,53.7963749 L96.6108468,57.678808 C95.3148645,58.0001502 94.0236048,58.3227592 92.737131,58.6466249 L91.7606126,54.7676544 C93.0517141,54.4426237 94.3475934,54.1188605 95.6481874,53.7963749 Z M910.769307,52.8807316 C912.021994,53.3640092 913.266462,53.8504006 914.502653,54.3399093 L913.029984,58.0589474 C911.804787,57.5737924 910.571294,57.0916905 909.329563,56.6126396 L910.769307,52.8807316 Z M103.442202,51.8926584 L104.377943,55.781667 C103.0808,56.0937748 101.788093,56.407146 100.499883,56.7217707 L99.5508423,52.8359861 C100.843492,52.520277 102.140633,52.2058311 103.442202,51.8926584 Z M903.238354,50.0489342 C904.499376,50.5111243 905.752643,50.9763251 906.998098,51.4445398 L905.590523,55.1886998 C904.355435,54.7243821 903.112514,54.2630219 901.86182,53.8046172 L903.238354,50.0489342 Z M111.244877,50.0428452 L112.154737,53.9379902 C110.853959,54.2418367 109.557358,54.5469498 108.264999,54.8533195 L107.342322,50.9611908 C108.63896,50.6538066 109.939833,50.3476881 111.244877,50.0428452 Z M119.049714,48.2461791 L119.934654,52.1470613 C118.634184,52.4420811 117.337621,52.7383648 116.045031,53.0359025 L115.147747,49.137841 C116.444459,48.8393548 117.745136,48.5421309 119.049714,48.2461791 Z M895.683061,47.3479553 C896.949991,47.7897408 898.209616,48.2344358 899.46188,48.6820435 L898.115546,52.448658 C896.873064,52.0045467 895.623201,51.5632983 894.366016,51.1249108 L895.683061,47.3479553 Z M126.881769,46.4950045 L127.742585,50.401281 C126.438369,50.6886876 125.137824,50.9773648 123.841016,51.2673027 L122.968251,47.3636785 C124.269048,47.0728488 125.573576,46.7832875 126.881769,46.4950045 Z M888.070978,44.7576032 C889.348521,45.1818657 890.619122,45.6089692 891.882725,46.0389166 L890.594248,49.8257129 C889.339932,49.3989255 888.078599,48.9749375 886.810307,48.5537471 L888.070978,44.7576032 Z M134.704113,44.7957715 L135.541636,48.7071082 C134.235835,48.9867154 132.933467,49.2675972 131.634596,49.5497438 L130.7855,45.6409031 C132.088234,45.3579173 133.39446,45.0762035 134.704113,44.7957715 Z M142.542593,43.1411288 L143.357504,47.0572389 C142.05043,47.3292309 140.746553,47.6025026 139.445941,47.877044 L138.619801,43.9632873 C139.92416,43.6879547 141.23178,43.4138986 142.542593,43.1411288 Z M880.430795,42.2802578 C881.7095,42.6850902 882.981698,43.0926637 884.247332,43.5029808 L883.013745,47.308012 C881.756884,46.9005391 880.493442,46.4957706 879.223475,46.0937048 L880.430795,42.2802578 Z M150.392078,41.5307771 L151.185011,45.4513966 C149.878796,45.7155744 148.575543,45.9810341 147.275318,46.2477659 L146.471486,42.3293664 C147.775349,42.0618884 149.082235,41.7956887 150.392078,41.5307771 Z M872.781343,39.9144729 C874.065961,40.302578 875.344426,40.6933549 876.616682,41.0868058 L875.434886,44.9082398 C874.17097,44.517368 872.900828,44.1291352 871.624517,43.7435397 L872.781343,39.9144729 Z M158.247551,39.9644158 L159.019091,43.8893012 C157.711335,44.1463752 156.406322,44.4047395 155.104118,44.6643843 L154.321959,40.7416012 C155.627707,40.4812498 156.93626,40.2221848 158.247551,39.9644158 Z M510.794772,39.9829926 L511.362418,43.94251 C509.919053,44.1494343 508.484179,44.2596424 507.102354,44.2682068 L507.077563,40.2682836 C508.274467,40.2608653 509.52822,40.1645687 510.794772,39.9829926 Z M500.370455,38.9153986 C501.160776,39.3862371 502.216692,39.7507959 503.483964,39.9822142 L502.765401,43.9171434 C501.058307,43.6054084 499.557993,43.0874198 498.323205,42.3517871 L500.370455,38.9153986 Z M166.104102,38.4417432 L166.854793,42.3706696 C165.545248,42.6208813 164.238232,42.8723935 162.933813,43.1251965 L162.172754,39.1982652 C163.480633,38.9447917 164.791105,38.6926145 166.104102,38.4417432 Z M518.004394,37.9759862 L519.614012,41.6378341 C518.350468,42.1932431 516.988869,42.6724691 515.569098,43.0648086 L514.50367,39.2093108 C515.741847,38.8671529 516.921769,38.4518699 518.004394,37.9759862 Z M865.07866,37.6405053 C866.366784,38.0120823 867.649109,38.3862599 868.925579,38.7630401 L867.793187,42.5994039 C866.524646,42.2249644 865.250235,41.853096 863.970009,41.4837973 L865.07866,37.6405053 Z M173.989168,36.9564704 L174.71943,40.8892452 C173.406585,41.1330223 172.096062,41.3781147 170.787932,41.6245126 L170.047517,37.6936367 C171.359035,37.4466007 172.672942,37.2008753 173.989168,36.9564704 Z M857.337145,35.4577657 C858.633161,35.8149113 859.923675,36.1746113 861.208631,36.5368674 L860.123255,40.386797 C858.845881,40.0266784 857.562933,39.6690874 856.274469,39.3140228 L857.337145,35.4577657 Z M181.866002,35.5145845 L182.576302,39.4510135 C181.265965,39.6874542 179.957728,39.9252147 178.651661,40.1642853 L177.931443,36.2296588 C179.240819,35.9899825 180.552362,35.7516212 181.866002,35.5145845 Z M523.42776,33.9364233 L526.801295,36.0856703 C526.004853,37.3357937 524.875211,38.4699519 523.466801,39.4797231 L521.136099,36.2289034 C522.153598,35.4993987 522.926166,34.723742 523.42776,33.9364233 Z M189.762361,34.1101004 L190.453051,38.0500177 C189.138175,38.2805227 187.8252,38.5123676 186.514199,38.7455427 L185.813751,34.8073487 C187.128008,34.5735945 188.444236,34.3411752 189.762361,34.1101004 Z M849.606126,33.37467 C850.900948,33.7157743 852.190622,34.0593583 853.475092,34.4054238 L852.434506,38.2677006 C851.157251,37.923579 849.874778,37.5819132 848.587142,37.2427021 L849.606126,33.37467 Z M494.746388,33.069844 L498.653605,33.9263803 C498.430598,34.9436641 498.462582,35.9327968 498.758422,36.9232459 L494.925741,38.0680406 C494.433784,36.4210096 494.379534,34.7433028 494.746388,33.069844 Z M197.641427,32.7486974 L198.312904,36.6919344 C196.998289,36.9157948 195.685362,37.141007 194.374199,37.3675613 L193.693136,33.4259686 C195.007497,33.1988617 196.323619,32.9731015 197.641427,32.7486974 Z M841.828854,31.3711355 C843.126651,31.6980456 844.419603,32.0273837 845.707655,32.3591511 L844.709927,36.2327205 C843.428777,35.9027307 842.142713,35.5751471 840.85179,35.2499686 L841.828854,31.3711355 Z M205.531207,31.4246953 L206.18376,35.3711081 C204.869447,35.5884344 203.556612,35.8071257 202.245332,36.0271722 L201.583346,32.0823307 C202.897773,31.8617561 204.213752,31.6425411 205.531207,31.4246953 Z M213.459885,30.1330306 L214.093697,34.0824967 C212.779055,34.2934709 211.465683,34.505826 210.153657,34.7195525 L209.510542,30.7715906 C210.825671,30.5573587 212.142144,30.3445022 213.459885,30.1330306 Z M834.040616,29.4523425 C835.345301,29.766693 836.645404,30.08344 837.940868,30.4025846 L836.984053,34.2864623 C835.695225,33.9689523 834.401744,33.6538188 833.103669,33.3410609 L834.040616,29.4523425 Z M221.358138,28.8844447 L221.973517,32.8368248 C220.657814,33.0416776 219.343172,33.2479303 218.029669,33.4555733 L217.405091,29.5046363 C218.721662,29.2965083 220.039371,29.0897746 221.358138,28.8844447 Z M826.21686,27.6085535 C827.525581,27.9101842 828.829996,28.2141743 830.130044,28.5205251 L829.21259,32.4138884 C827.91892,32.1090405 826.62087,31.8065338 825.318502,31.5063674 L826.21686,27.6085535 Z M229.286617,27.6688159 L229.883691,31.6240026 C228.565348,31.8230195 227.247857,32.0234604 225.931298,32.2253156 L225.325101,28.2715169 C226.644702,28.0691952 227.965234,27.8682916 229.286617,27.6688159 Z M526.2482,26.3121677 C526.411846,26.5653497 526.567221,26.8148719 526.758088,27.131986 C527.507904,28.3962089 527.951842,29.6774484 528.080345,30.9586402 L524.100315,31.3578369 C524.032285,30.6795716 523.780424,29.9526815 523.324454,29.1838113 C523.161677,28.9134374 523.028699,28.6998851 522.888842,28.4835058 L526.2482,26.3121677 Z M237.208446,26.4915162 L237.787394,30.449397 C236.469727,30.6421415 235.152696,30.8363285 233.836385,31.0319485 L233.248394,27.0754012 C234.567721,26.8793331 235.887766,26.6847015 237.208446,26.4915162 Z M499.453502,25.3439732 L502.278097,28.1762273 C501.341495,29.1102972 500.574611,30.0316836 499.982973,30.9341251 L496.63778,28.7410268 C497.388998,27.5951718 498.33074,26.4636993 499.453502,25.3439732 Z M818.391415,25.8442923 C819.70141,26.1331517 821.007381,26.4243289 822.309268,26.717825 L821.429589,30.6198968 C820.133831,30.3277826 818.833978,30.0379693 817.530089,29.7504564 L818.391415,25.8442923 Z M245.119254,25.3527018 L245.680225,29.3131704 C244.36121,29.4999991 243.042614,29.6882949 241.724523,29.8780482 L241.154556,25.9188642 C242.475647,25.728679 243.797241,25.539955 245.119254,25.3527018 Z M810.571929,24.1575666 C811.88045,24.433641 813.185237,24.7119872 814.486229,24.992606 L813.642842,28.9026824 C812.34774,28.6233341 811.048832,28.346242 809.746179,28.0714058 L810.571929,24.1575666 Z M253.046989,24.2480998 L253.590033,28.2110662 C252.272521,28.3916045 250.955206,28.5736301 249.638176,28.7571332 L249.086184,24.7954032 C250.406198,24.6114843 251.726495,24.4290467 253.046989,24.2480998 Z M260.987006,23.1783467 L261.512148,27.1437251 C260.193374,27.3183726 258.874571,27.4945356 257.555828,27.6722043 L257.02175,23.7080196 C258.343472,23.5299495 259.665254,23.3533886 260.987006,23.1783467 Z M802.72219,22.5376002 C804.032171,22.8019885 805.338685,23.0686175 806.641669,23.3374879 L805.833301,27.2549541 C804.536001,26.9872565 803.23516,26.7217853 801.930842,26.45854 L802.72219,22.5376002 Z M268.934553,22.1440852 L269.44179,26.1117937 C268.118566,26.2809564 266.79508,26.4516721 265.471423,26.6239313 L264.955221,22.6573793 C266.281866,22.4847311 267.608341,22.3136299 268.934553,22.1440852 Z M506.080281,20.1305197 L508.258012,23.4857373 C507.123559,24.2220633 506.07808,24.9595636 505.126356,25.6962805 L502.677875,22.5332216 C503.720378,21.7262338 504.855934,20.9251918 506.080281,20.1305197 Z M794.850851,20.983878 C796.164763,21.2374787 797.475459,21.4933017 798.782874,21.7513476 L798.008331,25.6756417 C796.706422,25.4186824 795.401221,25.1639319 794.092795,24.9113901 L794.850851,20.983878 Z M276.884765,21.1459643 L277.374067,25.1159245 C276.054616,25.2785481 274.734666,25.4427454 273.414309,25.6085069 L272.916049,21.6396611 C274.239392,21.4735248 275.562328,21.308956 276.884765,21.1459643 Z M520.387084,19.9388621 C521.548731,20.8260653 522.617797,21.8020021 523.600694,22.8743216 L520.651991,25.5771256 C519.828951,24.6792067 518.93427,23.8624635 517.95921,23.1177659 L520.387084,19.9388621 Z M284.832666,20.1846389 L285.303973,24.1567755 C283.984852,24.3132937 282.664984,24.4714164 281.344466,24.631134 L280.864164,20.6600751 C282.187679,20.4999948 283.510546,20.3415129 284.832666,20.1846389 Z M786.982924,19.4988342 C788.2973,19.741381 789.608725,19.9861245 790.917132,20.2330649 L790.175294,24.1636725 C788.872216,23.9177378 787.56611,23.6739871 786.257044,23.4324202 L786.982924,19.4988342 Z M292.804843,19.2571581 L293.257995,23.231407 C291.935258,23.3822278 290.611513,23.5346963 289.286862,23.6888028 L288.82463,19.7155998 C290.152308,19.5611413 291.479079,19.4083242 292.804843,19.2571581 Z M300.764044,18.3681369 L301.198917,22.3444272 C299.874669,22.4892558 298.549143,22.6357725 297.222444,22.783968 L296.778396,18.8086917 C298.108153,18.6601548 299.436736,18.5133 300.764044,18.3681369 Z M779.083499,18.0737374 C780.400014,18.3058711 781.713837,18.5401854 783.024898,18.7766804 L782.31482,22.7131496 C781.008933,22.4775878 779.700275,22.2441946 778.388916,22.0129701 L779.083499,18.0737374 Z M308.70489,17.5182532 L309.12133,21.4965163 C307.797688,21.6350736 306.472493,21.7753572 305.14585,21.9173575 L304.720132,17.9400765 C306.049866,17.7977452 307.378154,17.6571343 308.70489,17.5182532 Z M512.857868,15.8391433 C514.237755,16.3664765 515.526044,16.9499365 516.731866,17.5962194 L514.842283,21.1217655 C514.491441,20.9337253 514.131517,20.751287 513.762158,20.5742631 L513.471,20.438 L512.909391,20.73967 C512.681926,20.8628054 512.45669,20.9861167 512.233716,21.1095939 L511.57161,21.4805133 L509.599219,18.0006177 C510.516982,17.4804331 511.470952,16.9641207 512.459224,16.4521334 L512.663,16.347 L512.857868,15.8391433 Z M771.187901,16.7130351 C772.507854,16.9353053 773.82537,17.1597484 775.140376,17.3863643 L774.461067,21.3282596 C773.151099,21.102512 771.838613,20.8789258 770.523682,20.6575013 L771.187901,16.7130351 Z M316.683993,16.701985 L317.081661,20.6821685 C315.760579,20.8141604 314.437659,20.9479146 313.113008,21.0834217 L312.705946,17.104188 C314.033726,16.9683608 315.359778,16.83429 316.683993,16.701985 Z M324.66344,15.9239919 L325.042029,19.9060354 C323.718953,20.0318258 322.393726,20.1594298 321.066461,20.2888383 L320.678301,16.3077164 C322.008754,16.177997 323.337172,16.0500858 324.66344,15.9239919 Z M763.293534,15.4141669 C764.612611,15.6261537 765.929527,15.8402956 767.244203,16.0565924 L766.594834,20.0035305 C765.285059,19.78804 763.973036,19.5746938 762.658844,19.363492 L763.293534,15.4141669 Z M332.636559,15.1855062 L332.995718,19.1693491 C331.672549,19.2886381 330.346905,19.4097908 329.018903,19.5327982 L328.649979,15.5498477 C329.981233,15.4265391 331.310132,15.3050888 332.636559,15.1855062 Z M340.626655,14.4852037 L340.965907,18.4707912 C339.644517,18.5832677 338.320317,18.6976568 336.993426,18.8139496 L336.644193,14.8292243 C337.974407,14.7126402 339.301935,14.5979637 340.626655,14.4852037 Z M755.353488,14.1680706 C756.676706,14.370792 757.998029,14.5756709 759.317373,14.7827072 L758.697268,18.7343485 C757.382718,18.5280646 756.066182,18.3239278 754.747742,18.1219387 L755.353488,14.1680706 Z M504.865498,13.5778041 C506.285076,13.8705733 507.622304,14.1907968 508.887486,14.5424332 L507.816353,18.39635 C506.641153,18.0697225 505.39138,17.7704418 504.057554,17.4953578 L504.865498,13.5778041 Z M348.595674,13.8272865 L348.914563,17.814555 C347.590023,17.9204875 346.262294,18.0284004 344.931501,18.1382847 L344.602339,14.1518512 C345.936552,14.0416844 347.267706,13.9334933 348.595674,13.8272865 Z M520.601218,12.6519298 L522.160283,16.3355852 C520.926155,16.8579154 519.724485,17.3881307 518.559414,17.925006 L516.885367,14.2921606 C518.08919,13.7374281 519.329154,13.1903163 520.601218,12.6519298 Z M747.432588,12.9835505 C748.75488,13.1764932 750.075564,13.3715838 751.394553,13.5688218 L750.802981,17.5248353 C749.488675,17.3282976 748.172667,17.1338975 746.855043,16.941636 L747.432588,12.9835505 Z M356.565667,13.2108373 L356.863596,17.1997266 C355.537716,17.2987565 354.208249,17.3998346 352.875325,17.5029521 L352.5668,13.5148683 C353.903251,13.4114779 355.23625,13.3101314 356.565667,13.2108373 Z M364.55693,12.6357026 L364.833152,16.6261539 C363.507772,16.7178976 362.178388,16.8117577 360.845134,16.9077257 L360.557955,12.918048 C361.894857,12.8218174 363.227893,12.7276995 364.55693,12.6357026 Z M496.780492,12.292626 C498.197178,12.4651303 499.536196,12.6496423 500.809555,12.848695 L500.191774,16.8007003 C498.96473,16.6088877 497.67027,16.4305155 496.296999,16.2632978 L496.780492,12.292626 Z M739.486809,11.8525897 C740.811683,12.0364582 742.135238,12.2224805 743.457383,12.4106558 L742.89376,16.3707479 C741.57621,16.1832265 740.257243,15.9978491 738.936952,15.8146165 L739.486809,11.8525897 Z M372.558947,12.1043544 L372.812625,16.0963023 C371.489686,16.1803717 370.162303,16.266626 368.830617,16.3550569 L368.56558,12.3638471 C369.901046,12.2751652 371.232215,12.1886649 372.558947,12.1043544 Z M380.560593,11.6193188 L380.790792,15.6126894 C379.465146,15.6891066 378.134545,15.7678016 376.799134,15.8487666 L376.557061,11.8560982 C377.896423,11.7748937 379.230982,11.6959647 380.560593,11.6193188 Z M488.708147,11.4944786 C490.123694,11.6091407 491.456669,11.7272392 492.724789,11.8509198 L492.336509,15.83203 C491.091086,15.7105631 489.779749,15.5943817 488.385197,15.4814202 L488.708147,11.4944786 Z M388.550121,11.1831765 L388.75579,15.1778855 C387.429493,15.2461703 386.097696,15.316828 384.760553,15.389851 L384.542433,11.3958024 C385.883718,11.3225532 387.219665,11.2516754 388.550121,11.1831765 Z M731.566419,10.7810238 C732.892247,10.9558025 734.217062,11.1327401 735.540769,11.3118356 L735.004461,15.2757193 C733.68527,15.0972347 732.364962,14.9208992 731.043638,14.746714 L731.566419,10.7810238 Z M480.660519,10.9264809 C482.094533,11.0166479 483.416121,11.1038426 484.665624,11.1911347 L484.386857,15.181409 C483.147174,15.0948029 481.83472,15.0082108 480.409506,14.9185972 L480.660519,10.9264809 Z M396.569951,10.7960964 L396.749725,14.7920546 C395.424938,14.8516553 394.09407,14.9137265 392.75728,14.9782613 L392.564401,10.9829143 C393.905549,10.9181691 395.240785,10.8558941 396.569951,10.7960964 Z M528.146032,9.69536153 L529.51151,13.4550781 C528.261461,13.9090791 527.027091,14.374262 525.813646,14.8491315 L524.355934,11.1242052 C525.600357,10.6372129 526.865459,10.1604482 528.146032,9.69536153 Z M472.741285,10.4666922 C473.888434,10.525395 475.021815,10.5875629 476.142906,10.6532846 C476.444571,10.6709873 476.444571,10.6709873 476.744889,10.6886875 L476.509277,14.6817423 C476.20975,14.6640888 476.20975,14.6640888 475.908814,14.6464289 C474.797673,14.5812905 473.674179,14.5196649 472.536861,14.4614651 L472.741285,10.4666922 Z M404.576993,10.4630404 L404.729425,14.4601349 C403.408505,14.5105091 402.080888,14.5634536 400.746738,14.6189622 L400.580458,10.6224198 C401.919212,10.5667197 403.251445,10.513591 404.576993,10.4630404 Z M412.58193,10.186606 L412.70528,14.1847037 C411.383478,14.2254839 410.054242,14.2689665 408.717744,14.3151457 L408.579617,10.3175313 C409.921027,10.2711824 411.255189,10.2275387 412.58193,10.186606 Z M464.7061,10.1201468 C466.057679,10.1681199 467.392931,10.220461 468.711584,10.2771665 L468.539733,14.2734732 C467.231131,14.2171999 465.905866,14.1652503 464.564212,14.1176295 L464.7061,10.1201468 Z M723.605312,9.75891882 C724.929287,9.92437472 726.252579,10.0919901 727.575082,10.2617636 L727.065771,14.2292063 C725.747704,14.0600024 724.428843,13.8929483 723.109294,13.7280454 L723.605312,9.75891882 Z M420.592108,9.97034944 L420.684284,13.9692872 C419.364373,13.9997113 418.036231,14.0329753 416.700038,14.0690741 L416.592013,10.0705331 C417.933472,10.034292 419.266897,10.0008957 420.592108,9.97034944 Z M456.703675,9.89129969 C458.051842,9.92096793 459.385757,9.95461834 460.705171,9.99224972 L460.591132,13.9906238 C459.280445,13.9532413 457.955207,13.9198098 456.615671,13.8903315 L456.703675,9.89129969 Z M428.611078,9.81884464 L428.669568,13.818417 C427.347396,13.8377525 426.016027,13.8601043 424.675657,13.8854682 L424.599978,9.88618421 C425.946058,9.86071223 427.283156,9.83826426 428.611078,9.81884464 Z M448.645162,9.76306569 C449.998086,9.77667531 451.338324,9.7939921 452.665641,9.8150167 L452.60229,13.814515 C451.282716,13.7936131 449.950183,13.7763958 448.604927,13.7628633 L448.645162,9.76306569 Z M436.638103,9.73775293 L436.659877,13.7376937 C435.339005,13.7448841 434.00788,13.755277 432.666707,13.7688694 L432.62617,9.76907486 C433.973572,9.75541928 435.310951,9.74497753 436.638103,9.73775293 Z M440.642729,9.7257032 C441.987719,9.72498437 443.321545,9.72768021 444.643993,9.73379282 L444.625504,13.7337501 C443.309963,13.7276694 441.983012,13.7249875 440.644867,13.7257026 L440.642729,9.7257032 Z M715.643515,8.79085682 C716.970226,8.94770705 718.296599,9.10673722 719.622518,9.26794576 L719.139743,13.2387049 C717.818212,13.0780298 716.496221,12.9195251 715.173886,12.7631923 L715.643515,8.79085682 Z M707.68194,7.87613591 C709.010404,8.02435616 710.338901,8.17477898 711.667305,8.32740256 L711.210739,12.3012606 C709.886682,12.1491365 708.562528,11.9992054 707.238402,11.8514691 L707.68194,7.87613591 Z M535.816191,7.10660214 L537.010054,10.9242838 C535.757675,11.3159266 534.501574,11.7239855 533.24959,12.1463492 L531.970967,8.35621417 C533.251253,7.92430264 534.535607,7.5070654 535.816191,7.10660214 Z M699.735056,7.01562656 C701.063117,7.15507605 702.391612,7.29674933 703.720405,7.44064438 L703.289762,11.4173952 C701.965284,11.2739673 700.641099,11.1327537 699.317343,10.9937563 L699.735056,7.01562656 Z M691.760003,6.20435638 C693.087,6.33500648 694.41487,6.46790576 695.743464,6.60305197 L695.338668,10.5825168 C694.014367,10.4478073 692.690787,10.3153374 691.368076,10.1851093 L691.760003,6.20435638 Z M683.758568,5.44276885 C685.087951,5.56495078 686.418697,5.68942629 687.750644,5.81619287 L687.37166,9.79819887 C686.044014,9.67184156 684.717565,9.547768 683.392476,9.4259807 L683.758568,5.44276885 Z M543.519149,4.85896462 L544.663229,8.6918593 C544.067236,8.86975712 543.530096,9.02422538 542.984232,9.17321637 C542.263595,9.36991114 541.533315,9.57473065 540.795877,9.78706462 L539.689105,5.94323101 C540.444299,5.72578487 541.192417,5.5159621 541.930979,5.31437498 C542.443913,5.17437169 542.951476,5.0284092 543.519149,4.85896462 Z M675.786502,4.7360747 C677.116237,4.84960814 678.447881,4.96548061 679.781249,5.08368943 L679.428017,9.06806232 C678.098968,8.95023637 676.77164,8.83473945 675.446218,8.72157429 L675.786502,4.7360747 Z M667.81229,4.08137906 C669.139964,4.18601823 670.47015,4.29304252 671.802646,4.40244909 L671.475322,8.38903392 C670.147176,8.2799845 668.821337,8.17331002 667.498009,8.06901338 L667.81229,4.08137906 Z M659.81292,3.47749255 C661.142152,3.57340225 662.474603,3.6717671 663.810043,3.77258412 L663.508926,7.76123409 C662.177903,7.66075053 660.849868,7.56271169 659.525051,7.46712056 L659.81292,3.47749255 Z M551.476736,2.79327541 L552.187448,6.72963018 C550.832573,6.9742539 549.653567,7.24225206 548.452356,7.56795162 L547.405582,3.70734756 C548.715446,3.35218767 550.006332,3.05875794 551.476736,2.79327541 Z M651.825933,2.92811723 C653.154944,3.01502166 654.487982,3.10445747 655.824786,3.1964217 L655.550258,7.18698991 C654.217962,7.09533579 652.889432,7.00620242 651.564929,6.91959277 L651.825933,2.92811723 Z M643.825043,2.43257716 C645.153653,2.51023211 646.487237,2.59050941 647.825497,2.67340626 L647.578195,6.66575421 C646.24457,6.5831444 644.915621,6.50314614 643.591648,6.42576221 L643.825043,2.43257716 Z M635.815814,1.99302782 C637.144226,2.06113228 638.478744,2.13196973 639.819019,2.20553783 L639.599787,6.19952552 C638.264319,6.12622126 636.934612,6.05563912 635.611013,5.98778143 L635.815814,1.99302782 Z M559.595254,1.77716989 L559.93917,5.76235766 C558.507792,5.88588363 557.210498,6.01874044 556.027386,6.1618351 L555.547095,2.1907747 C556.777228,2.04199294 558.11978,1.90450125 559.595254,1.77716989 Z M627.811804,1.61241707 C629.139646,1.67054564 630.474958,1.73153966 631.817331,1.79539767 L631.627262,5.79087934 C630.289926,5.72726097 628.959658,5.66649731 627.636865,5.60858977 L627.811804,1.61241707 Z M567.651285,1.24710653 L567.850956,5.24211984 C566.443556,5.31246192 565.123794,5.38758905 563.885611,5.46761251 L563.62763,1.47594044 C564.885766,1.39462744 566.224914,1.31839678 567.651285,1.24710653 Z M619.814608,1.29362683 C621.140155,1.34116975 622.474831,1.39173248 623.818155,1.44531517 L623.658729,5.44213683 C622.320747,5.3887672 620.991421,5.33840716 619.671233,5.29105648 L619.814608,1.29362683 Z M611.784699,1.03939622 C613.108935,1.07560181 614.44442,1.11502566 615.790573,1.15767066 L615.663919,5.15566503 C614.32353,5.11320259 612.993822,5.07394927 611.675377,5.03790203 L611.784699,1.03939622 Z M575.693876,0.931999836 L575.808624,4.93035363 C574.444786,4.9694939 573.121665,5.01435525 571.841418,5.06481938 C571.829394,5.06529352 571.829394,5.06529352 571.824575,5.06548366 L571.666855,1.06859432 C571.671754,1.06840101 571.671754,1.06840101 571.683843,1.06792433 C572.978589,1.0168887 574.315965,0.971544002 575.693876,0.931999836 Z M603.768406,0.856945101 C605.091136,0.880781536 606.427861,0.908086856 607.77787,0.93886864 L607.68669,4.93782926 C606.343028,4.90719222 605.012673,4.88001702 603.696335,4.85629577 L603.768406,0.856945101 Z M583.715557,0.773108573 L583.762356,4.7728348 C582.404848,4.78871833 581.076338,4.80942511 579.77835,4.83489594 L579.699871,0.835665868 C581.008521,0.809985825 582.347587,0.789114512 583.715557,0.773108573 Z M595.7532,0.753550421 C597.073003,0.763513189 598.410465,0.777263743 599.764698,0.794817751 L599.712853,4.79448175 C598.365803,4.77702085 597.035557,4.76334449 595.723006,4.75343646 L595.7532,0.753550421 Z M590.381436,0.733910524 L591.733736,0.734807339 L591.726941,4.73480157 C590.375821,4.73250645 589.046401,4.73442598 587.739822,4.74052909 L587.721138,0.740572728 L589.043819,0.735834542 L590.381436,0.733910524 Z"></path>
                </g>
            </g>
        </g>
    </g>
</svg>