<?xml version="1.0" encoding="UTF-8"?>
<svg width="220px" height="55px" viewBox="0 0 220 55" version="1.1" xmlns="http://www.w3.org/2000/svg" xmlns:xlink="http://www.w3.org/1999/xlink">
    <title>photiu.ai 2</title>
    <g id="页面-1" stroke="none" stroke-width="1" fill="none" fill-rule="evenodd">
        <g id="HOME1.0" transform="translate(-851, -28)" fill-rule="nonzero">
            <g id="TOP" transform="translate(1, 0)">
                <g id="photiu.ai-2" transform="translate(850, 28)">
                    <g id="photiu.ai" transform="translate(0, 0)">
                        <path d="M8.25128926,16.8635724 C8.56071261,15.8321613 8.76699484,14.3366151 8.76699484,13.3567745 L8.76699484,13.2020628 L0,13.2020628 L0,54.4585091 L8.76699484,54.4585091 L8.76699484,46.9807782 C8.76699484,43.2676981 8.50914205,41.3595874 7.99343647,39.193624 L8.19971871,39.193624 C9.90154712,41.7205813 12.4285045,43.1129864 15.7805907,43.1129864 C23.0004688,43.1129864 28.1575246,36.8213783 28.1575246,28.0028129 C28.1575246,18.1012658 23.9803094,12.6863572 16.2962963,12.6863572 C12.8926395,12.6863572 10.2109705,14.1819034 8.40600094,16.8635724 L8.25128926,16.8635724 Z M13.9756212,36.8213783 C10.3141116,36.8213783 8.61228317,33.9334271 8.61228317,28.0543835 C8.61228317,22.2269105 10.5203938,19.0811064 13.7177684,19.0811064 C17.0698547,19.0811064 19.2358181,22.2269105 19.2358181,28.0028129 C19.2358181,33.7271449 17.0698547,36.8213783 13.9756212,36.8213783 Z" id="形状" fill="#000000"></path>
                        <path d="M40.947023,16.9667135 C41.1533052,15.9353024 41.5658697,13.2020628 41.5658697,8.66385373 L41.5658697,1.34083451 L32.7988748,1.34083451 L32.7988748,42.5972808 L41.5658697,42.5972808 L41.5658697,24.5475856 C41.5658697,20.7313643 43.5255509,19.1842475 46.0525082,19.1842475 C48.8888889,19.1842475 50.1265823,20.5766526 50.1265823,24.5475856 L50.1265823,42.5972808 L58.8935771,42.5972808 L58.8935771,22.6910455 C58.8935771,15.8321613 54.819503,12.6863572 49.5593061,12.6863572 C45.9493671,12.6863572 42.9582747,14.0787623 41.2564463,16.9667135 L40.947023,16.9667135 Z" id="路径" fill="#000000"></path>
                        <path d="M77.923113,12.6863572 C69.7749648,12.6863572 63.5349273,17.3277075 63.5349273,28.3122363 C63.5349273,38.5232068 69.9296765,43.1129864 77.923113,43.1129864 C86.0712611,43.1129864 92.3112986,38.4716362 92.3112986,27.4871074 C92.3112986,17.2761369 85.9165495,12.6863572 77.923113,12.6863572 Z M77.923113,36.6666667 C74.1068917,36.6666667 72.559775,32.7988748 72.559775,28.0028129 C72.559775,21.8659165 74.3131739,19.132677 77.923113,19.132677 C81.7393343,19.132677 83.286451,23.0004688 83.286451,27.7965307 C83.286451,33.8818565 81.533052,36.6666667 77.923113,36.6666667 Z" id="形状" fill="#000000"></path>
                        <path d="M107.112049,19.3905298 L113.455227,19.3905298 L113.455227,13.2020628 L107.112049,13.2020628 L107.112049,4.38349742 L98.6029067,9.28270042 L98.6029067,13.2020628 L94.374121,13.2020628 L94.374121,19.3905298 L98.6029067,19.3905298 L98.6029067,34.0881388 C98.6029067,40.2250352 102.522269,43.1129864 108.091889,43.1129864 C110.051571,43.1129864 112.320675,42.8035631 113.867792,42.2878575 L113.867792,36.0993905 C113.300516,36.3056728 112.320675,36.511955 111.392405,36.511955 C108.452883,36.511955 107.112049,35.5321144 107.112049,32.6957337 L107.112049,19.3905298 Z" id="路径" fill="#000000"></path>
                        <polygon id="形状" fill="#000000" points="126.296296 13.2020628 117.529301 13.2020628 117.529301 42.5972808 126.296296 42.5972808"></polygon>
                        <path d="M149.864041,13.2020628 L149.864041,31.2517581 C149.864041,35.0679794 147.90436,36.6150961 145.377403,36.6150961 C142.541022,36.6150961 141.303329,35.222691 141.303329,31.2517581 L141.303329,13.2020628 L132.536334,13.2020628 L132.536334,33.1082982 C132.536334,39.9671824 136.610408,43.1129864 141.870605,43.1129864 C145.583685,43.1129864 148.626348,41.6690108 150.328176,38.6263479 L150.431317,38.6263479 L150.431317,42.5972808 L158.631036,42.5972808 L158.631036,13.2020628 L149.864041,13.2020628 Z" id="路径" fill="#000000"></path>
                        <path d="M169.254571,32.1800281 C166.160338,32.1800281 163.788092,34.6554149 163.788092,37.5949367 C163.788092,40.6375996 166.160338,43.1129864 169.254571,43.1129864 C172.297234,43.1129864 174.72105,40.4313174 174.72105,37.5949367 C174.72105,34.6554149 172.297234,32.1800281 169.254571,32.1800281 Z" id="路径" fill="#000000"></path>
                        <path d="M204.116268,23.2067511 C204.116268,16.5541491 199.578059,12.6863572 192.203469,12.6863572 C185.602438,12.6863572 181.21894,15.8837318 179.774965,21.814346 L187.252696,23.2067511 C187.819972,19.9062353 189.160806,18.4106892 191.584623,18.4106892 C193.956868,18.4106892 195.297703,20.060947 195.297703,23.6193155 L195.297703,25.3727145 C193.853727,25.1148617 192.30661,25.0117206 191.172058,25.0117206 C183.384904,25.0117206 178.485701,28.2606657 178.485701,34.3459916 C178.485701,39.8640413 182.198781,43.1129864 188.284107,43.1129864 C192.048758,43.1129864 194.781997,41.875293 196.535396,39.2451946 C197.257384,41.4627286 198.804501,42.5972808 202.156587,42.5972808 C203.909986,42.5972808 205.19925,42.3909986 206.849508,41.7721519 L206.849508,35.583685 C206.746367,35.6352555 206.591655,35.6352555 206.12752,35.6352555 C204.786685,35.6352555 204.116268,34.758556 204.116268,32.9020159 L204.116268,23.2067511 Z M190.811064,37.1823722 C188.59353,37.1823722 187.252696,35.8931083 187.252696,34.1397093 C187.252696,31.9221753 188.954524,30.6329114 191.636193,30.6329114 C192.925457,30.6329114 194.317862,30.7876231 195.297703,31.0454759 C195.297703,35.3258322 193.802157,37.1823722 190.811064,37.1823722 Z" id="形状" fill="#000000"></path>
                        <polygon id="形状" fill="#000000" points="219.278012 13.2020628 210.511017 13.2020628 210.511017 42.5972808 219.278012 42.5972808"></polygon>
                        <path d="M121.912799,0 C119.127989,0 116.962025,1.75339897 116.962025,4.95077356 C116.962025,8.25128926 119.127989,10.0562588 121.912799,10.0562588 C124.697609,10.0562588 127.018284,8.09657759 127.018284,4.95077356 C127.018284,1.75339897 124.697609,0 121.912799,0 Z" id="路径" fill="#0023FF"></path>
                        <path d="M214.894515,0 C212.109705,0 209.943741,1.75339897 209.943741,4.95077356 C209.943741,8.25128926 212.109705,10.0562588 214.894515,10.0562588 C217.679325,10.0562588 220,8.09657759 220,4.95077356 C220,1.75339897 217.679325,0 214.894515,0 Z" id="路径" fill="#0023FF"></path>
                    </g>
                </g>
            </g>
        </g>
    </g>
</svg>