<?xml version="1.0" standalone="no"?><!DOCTYPE svg PUBLIC "-//W3C//DTD SVG 1.1//EN" "http://www.w3.org/Graphics/SVG/1.1/DTD/svg11.dtd"><svg class="icon" width="200px" height="200.00px" viewBox="0 0 1024 1024" version="1.1" xmlns="http://www.w3.org/2000/svg"><path d="M442.944 288.32h348.032l-108.352-102.208c-15.552-15.744-19.456-31.104-4.16-46.208 16.064-15.872 32.576-15.808 48.64 0l145.92 144.768c8.768 8.832 23.488 20.608 22.08 32.448l-0.64 4.8 0.64 4.864c1.344 11.776-6.4 18.24-14.848 26.816l-147.648 145.216c-16.064 15.808-38.08 20.992-54.144 5.12-15.296-15.104-3.84-38.208 11.328-53.504l101.056-96.832L442.944 352C316.48 352.064 192 463.552 192 588.224 192 712.832 316.48 832 442.944 832h334.592c22.592 0 29.696 9.6 29.696 32.256s-7.04 31.744-29.696 31.744H442.88C268.864 896 128 757.696 128 588.16c0-169.408 140.8-299.84 314.944-299.84z" fill="#888888" /><path d="M700.608 192a32 32 0 1 0 0-64 32 32 0 0 0 0 64zM703.808 514.048a32 32 0 1 0 0-64 32 32 0 0 0 0 64zM786.176 896a32 32 0 1 0 0-64 32 32 0 0 0 0 64z" fill="#888888" /></svg>